<svg width="72.606049" height="28.108032" viewBox="0 0 72.606 28.108" fill="none" xmlns="http://www.w3.org/2000/svg" xmlns:xlink="http://www.w3.org/1999/xlink">
	<desc>
			Created with Pixso.
	</desc>
	<defs>
		<clipPath id="clip1_3775">
			<rect id="Layer_1" rx="-0.500000" width="71.606049" height="27.108034" transform="translate(0.500000 0.500000)" fill="white" fill-opacity="0"/>
		</clipPath>
	</defs>
	<rect id="Layer_1" rx="-0.500000" width="71.606049" height="27.108034" transform="translate(0.500000 0.500000)" fill="#FFFFFF" fill-opacity="0"/>
	<g clip-path="url(#clip1_3775)">
		<path id="Vector" d="M28.26 -0.01C32.52 0.03 36.46 0.45 40.29 1.64C43.34 2.58 46.16 4.01 48.86 5.7C49.53 6.12 50.18 6.55 50.83 6.99C51.25 7.28 51.73 7.45 52.24 7.48C54.59 7.64 56.94 7.78 59.28 7.98C61.82 8.19 64.28 8.74 66.57 9.91C68.02 10.64 69.27 11.64 70.36 12.84C71.04 13.57 71.68 14.34 72.32 15.1C72.58 15.4 72.64 15.77 72.58 16.15C72.38 17.7 72.17 19.24 71.96 20.78C71.93 20.91 71.94 21.05 71.97 21.18C72.01 21.31 72.07 21.43 72.15 21.53C72.53 21.99 72.53 22.32 72.2 22.81C71.65 23.63 70.84 24.02 69.9 24.17C66.77 24.69 63.65 25.2 60.52 25.71C58.7 26.01 56.86 26.14 55.02 26.23C52.83 26.33 50.64 26.43 48.45 26.53C48.29 26.54 48.12 26.55 47.98 26.62C46.85 27.14 45.65 27.4 44.41 27.52C42.75 27.69 41.09 27.89 39.43 28.07C37.55 28.26 35.95 27.64 34.6 26.34C34.29 26.04 33.93 25.88 33.5 25.83C30.85 25.52 28.2 25.19 25.55 24.88C23.27 24.61 20.98 24.34 18.69 24.08C16.79 23.86 14.88 23.64 12.98 23.43C11.99 23.32 11.01 23.42 10.02 23.52C8.4 23.69 6.77 23.84 5.15 23.97C3.58 24.1 2.44 23.38 1.57 22.13C1.01 21.33 0.64 20.42 0.48 19.45C0.22 17.9 0 16.34 -0.01 14.76C-0.01 13.26 0.33 11.85 1.14 10.57C1.98 9.24 3.2 8.37 4.6 7.73C5.01 7.54 5.45 7.41 5.84 7.2C6.69 6.75 7.52 6.27 8.35 5.78C11.62 3.85 15.06 2.3 18.71 1.24C20.87 0.6 23.09 0.25 25.34 0.13C26.4 0.07 27.46 0.03 28.26 -0.01ZM44.02 25.19C48.96 25.57 53.85 25.03 58.77 24.7C58.41 24.21 57.99 23.95 57.4 24.03C56.22 24.19 55.05 24.06 53.89 23.83C53.32 23.72 53.22 23.63 53.16 23.05C53.16 23.04 53.14 23.03 53.09 22.98L46.76 22.98C46.76 22.95 46.76 22.93 46.76 22.9C46.84 22.89 46.93 22.87 47.01 22.87C49.04 22.71 51.07 22.55 53.1 22.39C53.47 22.36 53.82 22.2 54.08 21.93C54.57 21.44 55.07 20.97 55.57 20.49C56.34 19.77 57.24 19.3 58.27 19.13C59.4 18.95 60.54 18.84 61.68 18.74C63.74 18.55 65.8 18.37 67.86 18.21C69.05 18.12 70.23 17.91 71.43 18.14C71.44 18.14 71.46 18.13 71.49 18.12C71.56 17.53 71.62 16.93 71.69 16.29L68.49 16.29C68.49 16.28 68.49 16.27 68.49 16.26L71.83 15.85C71.69 15.48 71.47 15.24 71.12 15.13C71 15.08 70.88 15.03 70.77 14.96C70.19 14.66 69.59 14.5 68.92 14.53C66.21 14.65 63.49 14.74 60.78 14.85C59.66 14.89 58.57 14.8 57.52 14.39C57.47 14.37 57.41 14.36 57.36 14.35C57.58 14.59 57.81 14.85 58.05 15.11C58.19 15.26 58.18 15.37 57.97 15.41C57.72 15.46 57.46 15.52 57.2 15.5C56.06 15.43 54.92 15.31 53.78 15.26C52.23 15.19 50.73 14.72 49.42 13.9C48.77 13.49 48.13 13.09 47.48 12.68C47.24 12.52 46.95 12.47 46.67 12.52C45.95 12.65 45.22 12.76 44.49 12.87C44.21 12.91 43.93 12.95 43.65 12.99C43.81 12.87 43.98 12.79 44.16 12.75C45.47 12.43 46.78 12.13 48.09 11.81C49.42 11.48 50.81 11.55 52.09 12.02C53.02 12.35 53.92 12.77 54.84 13.15C55.07 13.24 55.3 13.36 55.54 13.46C55.38 13.31 55.2 13.18 55 13.08C53.01 12.13 51.02 11.15 48.94 10.39C46.39 9.45 43.78 8.77 41.07 8.56C38.56 8.37 36.05 8.25 33.54 8.11C32.64 8.06 31.77 7.99 30.93 7.61C28.94 6.72 27.56 5.23 26.58 3.33C26.44 3.06 26.32 2.77 26.25 2.47C26.11 1.92 26.36 1.45 26.88 1.22C27.05 1.14 27.23 1.09 27.41 1.06C27.87 0.99 28.33 0.95 28.79 0.91C29.17 0.87 29.55 0.85 29.94 0.82C22.09 0.24 15.04 2.59 8.45 6.65L11.33 6.44C11.29 6.03 11.4 5.67 11.71 5.43C12.12 5.1 12.54 4.75 13 4.52C15.11 3.43 17.33 2.65 19.62 2.04C20.87 1.71 22.06 1.84 23.21 2.51C24.3 3.14 25.24 3.95 26.1 4.87C28.36 7.28 29.96 10.06 30.66 13.32C30.71 13.55 30.76 13.78 30.81 14.02C31.51 14.02 32.19 14 32.87 14.02C33.31 14.04 33.6 13.88 33.85 13.52C35.77 10.72 39.47 10.18 42.04 12.39C43.82 13.93 44.83 15.95 45.2 18.27C45.49 20.09 45.22 21.86 44.65 23.59C44.47 24.12 44.24 24.63 44.02 25.19ZM29.92 14C29.92 13.87 29.93 13.78 29.92 13.7C29.82 13.19 29.74 12.67 29.59 12.18C29.26 11.02 28.68 9.98 28.12 8.93C27.92 8.57 27.67 8.43 27.28 8.44C25.96 8.49 24.65 8.54 23.34 8.58C21.07 8.65 18.81 8.55 16.59 8.05C15.98 7.91 15.38 7.73 14.78 7.56C14.21 7.39 13.72 7.5 13.31 7.93C11.91 9.4 11.38 11.07 12.21 13C12.74 14.25 13.18 15.54 13.68 16.81C13.83 17.19 14.02 17.56 14.26 17.9C14.89 18.76 15.8 19.14 16.81 19.32C19.57 19.79 22.34 20.27 25.11 20.72C26.32 20.91 27.53 21.04 28.75 21.18C29.33 21.24 29.6 21.01 29.68 20.43C29.76 19.85 29.85 19.26 29.87 18.67C29.9 17.3 29.89 15.93 29.9 14.56C29.9 14.5 29.89 14.45 29.88 14.4L26.31 14.08L26.32 14L29.92 14ZM0.87 13.65C1.27 13.12 1.63 12.63 2 12.15C2.34 11.71 2.74 11.33 3.28 11.14C4.27 10.8 5.19 11 6.03 11.59C6.76 12.1 7.26 12.81 7.62 13.61C8.67 15.92 8.75 18.28 7.97 20.68C7.92 20.81 7.87 20.94 7.82 21.09C7.92 21.1 7.99 21.11 8.05 21.11C9.25 21.22 10.46 21.27 11.66 21.43C14.85 21.84 18.03 22.27 21.21 22.74C24.89 23.28 28.56 23.88 32.24 24.45C32.59 24.51 32.94 24.54 33.33 24.59C32.57 23 32.14 21.39 32.11 19.67C32.08 17.96 32.45 16.33 33.09 14.72L30.77 14.5C30.76 14.58 30.76 14.62 30.75 14.66C30.68 16.29 30.62 17.92 30.54 19.55C30.52 20 30.45 20.45 30.34 20.89C30.18 21.5 29.75 21.87 29.11 21.95C28.81 21.99 28.51 21.99 28.22 21.95C26.06 21.63 23.9 21.29 21.75 20.94C19.95 20.64 18.15 20.33 16.36 19.99C15.28 19.79 14.31 19.34 13.65 18.42C13.43 18.11 13.18 18.01 12.83 18.02C11.94 18.02 11.05 18.01 10.15 18.01L9.84 18.01L9.84 17.95L13.14 17.59C13.12 17.51 13.11 17.46 13.1 17.42C12.62 16.19 12.13 14.97 11.68 13.74C11.45 13.09 11.2 12.42 11.09 11.74C10.86 10.35 11.37 9.15 12.22 8.07C12.4 7.84 12.58 7.62 12.77 7.37C12.65 7.34 12.57 7.31 12.48 7.3C12.38 7.28 12.27 7.26 12.17 7.26C10.09 7.16 8.04 7.3 6.04 7.97C4.7 8.41 3.47 9.04 2.48 10.08C1.55 11.07 1.02 12.24 0.87 13.66L0.87 13.65ZM40.19 7.66C40.19 7.68 40.19 7.7 40.19 7.71C40.33 7.72 40.47 7.73 40.6 7.74C43.86 8.05 47 8.86 50.05 10.04C52.38 10.94 54.6 12.06 56.79 13.24C57.97 13.89 59.3 14.19 60.63 14.12C63.11 14.01 65.59 13.89 68.07 13.77C68.14 13.77 68.21 13.75 68.27 13.75C67.73 13.39 67.19 13.07 66.64 12.77C61.88 10.21 56.79 8.74 51.46 8.07C48.36 7.68 45.25 7.57 42.13 7.62C41.48 7.63 40.83 7.64 40.19 7.66ZM33.27 19.8C33.29 20.07 33.32 20.5 33.38 20.92C33.61 22.63 34.29 24.14 35.57 25.31C36.85 26.49 38.34 26.81 39.97 26.16C41.11 25.71 41.92 24.84 42.48 23.78C43.98 20.94 43.87 18.12 42.2 15.39C41.53 14.3 40.59 13.47 39.31 13.14C37.58 12.7 36.16 13.28 35.03 14.6C33.78 16.04 33.31 17.77 33.27 19.8ZM68.59 13.07C68.22 12.61 67.86 12.23 67.59 11.79C67.22 11.19 66.73 10.78 66.1 10.48C64.26 9.62 62.32 9.12 60.32 8.85C59.7 8.76 59.08 8.7 58.46 8.62L58.45 8.68C62.01 9.68 65.38 11.11 68.59 13.07ZM1.02 17.42C1.07 17.8 1.12 18.48 1.24 19.14C1.44 20.21 1.88 21.17 2.68 21.93C3.5 22.7 4.55 22.76 5.44 22.06C6.17 21.5 6.6 20.72 6.89 19.86C7.26 18.75 7.3 17.61 7.17 16.47C7.02 15.23 6.57 14.12 5.69 13.21C4.7 12.18 3.43 12.18 2.47 13.23C1.48 14.32 1.02 15.64 1.02 17.42ZM26.6 6.4C26.54 6.29 26.53 6.23 26.48 6.18C26.42 6.13 26.36 6.08 26.29 6.03C25.16 5.17 23.89 4.86 22.49 5.12C22.17 5.18 22.04 5.3 22.03 5.56C22.02 5.8 22.17 5.97 22.45 6.05C22.51 6.06 22.56 6.07 22.62 6.07C23.54 6.15 24.46 6.23 25.38 6.31C25.76 6.34 26.15 6.37 26.6 6.4ZM71.63 22.18C71.37 21.86 71.07 21.75 70.66 21.91C70.24 22.09 69.79 22.22 69.36 22.37C69.31 22.39 69.26 22.42 69.21 22.45C70.38 22.97 71.01 22.89 71.63 22.18L71.63 22.18Z" fill="#242E69" fill-opacity="1.000000" fill-rule="nonzero"/>
		<path id="Vector" d="M46.08 16.41L62.82 16.71C62.39 16.94 57.13 17.26 54.46 17.22C52.09 17.18 46.78 16.67 46.08 16.41Z" fill="#242E69" fill-opacity="1.000000" fill-rule="nonzero"/>
		<path id="Vector" d="M60.22 12.1C60.78 11.78 61.53 12.11 62.08 12.89C61.8 13.12 61.56 13.17 61.3 12.98C60.93 12.7 60.58 12.4 60.22 12.1Z" fill="#242E69" fill-opacity="1.000000" fill-rule="nonzero"/>
		<path id="Vector" d="M33.62 19.75C33.61 18.48 33.81 17.26 34.41 16.13C34.84 15.31 35.41 14.6 36.17 14.08C37.66 13.06 39.48 13.2 40.86 14.41C42.08 15.47 42.78 16.82 43.03 18.4C43.32 20.2 43.13 21.93 42.24 23.54C41.72 24.46 41 25.19 40.06 25.67C38.65 26.38 37.05 26.14 35.79 25.01C34.44 23.79 33.76 22.24 33.62 20.43C33.61 20.2 33.62 19.97 33.62 19.75Z" fill="#242E69" fill-opacity="1.000000" fill-rule="nonzero"/>
		<path id="Vector" d="M1.23 17.4C1.25 15.93 1.67 14.6 2.66 13.49C3.46 12.59 4.6 12.55 5.47 13.39C6.27 14.15 6.66 15.11 6.86 16.17C7.14 17.65 6.99 19.09 6.34 20.47C6.1 20.98 5.74 21.44 5.29 21.79C4.61 22.34 3.78 22.36 3.07 21.84C2.32 21.3 1.86 20.54 1.59 19.67C1.35 18.94 1.23 18.17 1.23 17.4Z" fill="#242E69" fill-opacity="1.000000" fill-rule="nonzero"/>
	</g>
</svg>
